<mxfile host="app.diagrams.net" modified="2023-08-31T21:03:35.592Z" agent="Mozilla/5.0 (Macintosh; Intel Mac OS X 10_15_7) AppleWebKit/537.36 (KHTML, like Gecko) Chrome/114.0.0.0 Safari/537.36" version="21.7.1" etag="q-pN7spMEk8qONABc5aM" type="github">
  <diagram name="Page-1" id="FET9YpiDJw--xy1hgMNF">
    <mxGraphModel>
      <root>
        <mxCell id="0" />
        <mxCell id="1" parent="0" />
      </root>
    </mxGraphModel>
  </diagram>
</mxfile>
